<?xml version="1.0" encoding="UTF-8" standalone="no"?>
<!-- Created with Inkscape (http://www.inkscape.org/) -->

<svg
  width="105.83337mm"
  height="105.83325mm"
  viewBox="0 0 105.83337 105.83325"
  version="1.1"
  id="svg5"
  xml:space="preserve"
  inkscape:version="1.2.1 (9c6d41e410, 2022-07-14)"
  sodipodi:docname="Basketball Button.svg"
  xmlns:inkscape="http://www.inkscape.org/namespaces/inkscape"
  xmlns:sodipodi="http://sodipodi.sourceforge.net/DTD/sodipodi-0.dtd"
  xmlns="http://www.w3.org/2000/svg"
  xmlns:svg="http://www.w3.org/2000/svg">
  <sodipodi:namedview
    id="namedview7"
    pagecolor="#ffffff"
    bordercolor="#000000"
    borderopacity="0.25"
    inkscape:showpageshadow="2"
    inkscape:pageopacity="0.0"
    inkscape:pagecheckerboard="0"
    inkscape:deskcolor="#d1d1d1"
    inkscape:document-units="mm"
    showgrid="false"
    inkscape:zoom="1.2938725"
    inkscape:cx="129.45634"
    inkscape:cy="355.5219"
    inkscape:window-width="3440"
    inkscape:window-height="1369"
    inkscape:window-x="1072"
    inkscape:window-y="-8"
    inkscape:window-maximized="1"
    inkscape:current-layer="layer3">
  </sodipodi:namedview>
  <defs
    id="defs2">
  </defs>
  <g
  inkscape:groupmode="layer"
  id="layer2"
  inkscape:label="Seams"
  transform="translate(-49.791543,-19.69897)">
  <ellipse
    style="fill:#615d6c;fill-opacity:1;stroke-width:0.227702"
    id="path4916"
    cx="102.70821"
    cy="72.615601"
    rx="52.867752"
    ry="52.840534"
    inkscape:export-filename="March Madness App\Basketball\Basketball.svg"
    inkscape:export-xdpi="95.999977"
    inkscape:export-ydpi="95.999977" />
    </ellipse>
  </g>
    <g
    inkscape:groupmode="layer"
    id="layer3"
    inkscape:label="Basketball Shapes"
    style="display:inline;fill:none;stroke:#000000;stroke-width:0.1;stroke-dasharray:none;stroke-opacity:1"
    transform="translate(-49.791543,-19.69897)">
    <g
      id="g7332"
      transform="matrix(0.9990756,0,0,0.99856124,3.9836091,2.0414344)">
      <path
        style="fill:#f36416;fill-opacity:1;stroke:#000000;stroke-width:0.1;stroke-dasharray:none;stroke-opacity:1"
        d="m 79.310856,119.83386 c 1.600139,1.03681 11.440076,3.83005 18.978575,3.78431 9.002469,-0.0546 17.415329,-2.0934 24.038709,-5.54657 -10.89973,-1.55537 -14.52555,-3.54839 -23.860837,-8.14707 -8.314024,-4.0956 -15.706644,-9.56842 -16.19223,-9.82801 -1.019357,-0.544939 -1.251914,-0.355359 -1.952045,0.25304 -0.397148,0.34511 -2.8405,4.25513 -3.609094,9.06638 -0.657157,4.11368 0.753951,8.16696 2.596922,10.41792 z"
        id="path5712"
        sodipodi:nodetypes="cscssssc">
      </path>
      <path
        style="fill:#f36416;fill-opacity:1;stroke:#000000;stroke-width:0.1;stroke-dasharray:none;stroke-opacity:1"
        d="m 125.40318,116.38008 c 14.72356,-8.84535 25.00432,-24.17683 26.02129,-41.281314 -9.42638,3.178108 -15.54514,4.053578 -34.45648,6.390299 -4.88587,0.603707 -14.76167,2.853305 -22.461078,5.884461 -4.410673,1.736424 -8.776104,5.377319 -11.024074,8.046386 -0.152282,0.180808 -0.683854,1.276902 0.02556,1.814843 11.437376,8.672845 27.833662,17.986755 41.894782,19.145325 z"
        id="path6494"
        sodipodi:nodetypes="ccssssc">
      </path>
      <path
        style="fill:#f36416;fill-opacity:1;stroke:#000000;stroke-width:0.1;stroke-dasharray:none;stroke-opacity:1"
        d="m 68.542322,84.364697 c -0.302665,-0.322151 -0.512953,-0.929803 -0.127804,-1.418646 7.851677,-9.965572 15.20932,-18.044215 21.862212,-24.953514 7.020951,-7.291542 13.27757,-13.260227 19.30855,-17.96309 6.93696,-5.40933 12.77585,-9.256717 19.85657,-12.423365 10.41133,7.233438 22.02764,21.292984 22.28936,43.454018 -13.01196,5.614809 -27.42243,5.776006 -37.65163,7.387182 -10.26461,1.616753 -22.225862,3.236037 -33.229545,15.004418 -0.37738,0.667476 -0.943371,0.712531 -1.661477,0.255611 -3.284016,-2.386198 -6.910869,-5.366768 -10.646236,-9.342614 z"
        id="path6496"
        sodipodi:nodetypes="ssssccsccs">
      </path>
      <path
        style="fill:#f36416;fill-opacity:1;stroke:#000000;stroke-width:0.1;stroke-dasharray:none;stroke-opacity:1"
        d="m 126.37451,25.535626 c -5.83742,-3.840962 -14.03501,-6.714249 -22.39145,-7.541582 -9.256204,-0.916415 -18.756539,0.595393 -26.532664,4.295311 -2.373186,3.270372 -5.702164,10.49944 -6.824671,15.530475 -0.458914,2.056836 -4.462601,13.565462 -6.03561,17.072886 -1.663158,3.708434 -3.453367,7.560039 -5.489519,10.738704 -0.317816,0.496147 -1.806797,3.195491 -2.252515,3.984473 -0.08748,0.154857 -0.180227,0.440873 -0.03834,0.677371 1.133698,1.889656 4.242523,5.567019 6.133992,7.675398 1.319344,1.470643 2.394036,2.890241 2.678229,3.130592 0.358433,0.303139 0.648641,0.168288 0.837128,-0.0064 0.279303,-0.25884 0.826692,-1.133592 1.742638,-2.219929 C 71.943058,74.435609 78.932486,66.34395 86.784815,57.978643 94.52463,49.7332 102.58528,41.910484 107.45923,37.983914 117.99427,29.496638 122.26338,27.619203 126.37451,25.535616 Z"
        id="path6498"
        sodipodi:nodetypes="cscssssssssssscc">
      </path>
      <path
        style="fill:#f36416;fill-opacity:1;stroke:#000000;stroke-width:0.1;stroke-dasharray:none;stroke-opacity:1"
        d="m 73.46285,24.206444 c -8.06693,4.655258 -11.748822,8.219946 -15.887598,13.452311 -4.138776,5.232365 -6.616107,10.171178 -8.932313,16.019736 0.178202,0.600977 0.943106,3.185366 2.304435,6.330814 1.295497,2.993339 2.895876,5.715571 3.19122,6.091924 0.272695,0.347491 0.743873,1.078798 1.789284,0.17893 0.642709,-0.553231 2.763697,-4.388349 5.060075,-9.440108 1.438838,-3.165272 3.086267,-7.173048 4.048521,-10.018417 2.498006,-7.386564 5.495783,-16.643494 6.834805,-19.38979 0.668367,-1.370801 1.268325,-2.564905 1.591571,-3.2254 z"
        id="path6500"
        sodipodi:nodetypes="czcssssssc">
      </path>
      <path
        style="fill:#f36416;fill-opacity:1;stroke:#000000;stroke-width:0.1;stroke-dasharray:none;stroke-opacity:1"
        d="m 47.51783,57.729916 c 0.04894,0.600563 2.388038,5.770914 3.506451,7.645508 1.118413,1.874594 2.017609,3.363016 2.205088,4.048686 0.187479,0.68567 0.121225,1.143079 0.01059,1.631468 -0.110637,0.488388 -1.030948,2.56221 -3.056141,4.699122 -2.025193,2.136912 -3.024914,2.691644 -3.629228,3.129951 -0.352645,-1.47591 -0.771545,-6.667672 -0.623775,-10.196412 0.147771,-3.52874 1.270069,-10.001925 1.587015,-10.958323 z"
        id="path6502"
        sodipodi:nodetypes="czzzzczc">
      </path>
      <path
        style="fill:#f36416;fill-opacity:1;stroke:#000000;stroke-width:0.1;stroke-dasharray:none;stroke-opacity:1"
        d="m 47.14122,81.840529 c 1.563447,-1.05565 2.188228,-1.535017 4.13464,-3.729658 1.946412,-2.194641 3.677305,-4.999906 3.731813,-5.082559 0.106143,-0.160948 0.392608,-0.275305 0.65272,-0.07216 0.260112,0.203145 1.318276,1.874434 2.80817,3.806446 0.592814,0.768728 3.100103,3.810631 3.5057,4.287881 1.236505,1.454948 1.797611,2.095833 2.26739,2.502656 0.195554,0.169347 0.276487,0.65052 0.01917,0.952154 -0.257508,0.301859 -1.370573,1.707848 -2.555056,3.470069 -1.060883,1.578335 -2.178807,3.446301 -2.992594,4.823335 -1.722385,2.914501 -2.926182,4.983352 -3.783733,7.425307 0,0 -3.998506,-6.738335 -5.272463,-9.825821 -1.273957,-3.087486 -2.515757,-8.55765 -2.515757,-8.55765 z"
        id="path6504"
        sodipodi:nodetypes="czszssssssczc">
      </path>
      <path
        style="fill:#f36416;fill-opacity:1;stroke:#000000;stroke-width:0.1;stroke-dasharray:none;stroke-opacity:1"
        d="m 56.541346,102.42368 c 0.311926,0.80269 4.96204,5.98806 8.53765,8.96388 3.575609,2.97581 7.349883,5.33759 10.648348,6.89167 -1.083215,-2.28256 -2.490697,-5.82067 -1.805041,-10.80867 0.685656,-4.988 3.967263,-9.85311 4.116,-10.082437 0.224621,-0.346326 0.106495,-0.565404 -0.02556,-0.741275 -0.240775,-0.320664 -3.109192,-2.787769 -5.845277,-5.305039 -1.127888,-1.037686 -2.153123,-2.136362 -2.986354,-2.942946 -1.188061,-1.150066 -1.986745,-1.826199 -2.134118,-1.925368 -0.333937,-0.224711 -0.710214,-0.299192 -1.073568,0 -0.270177,0.222469 -1.214537,1.61405 -2.447216,3.489219 -0.913569,1.389737 -1.943319,3.076091 -2.983986,4.715035 -2.412882,3.800041 -3.358897,6.114201 -4.000878,7.745931 z"
        id="path6506"
        sodipodi:nodetypes="czczssssssssc">
      </path>
    </g>
  </g>
</svg>
